<?xml version="1.0" encoding="UTF-8" standalone="no"?>
<!-- Uploaded to: SVG Repo, www.svgrepo.com, Generator: SVG Repo Mixer Tools -->

<svg
   width="166.01044"
   height="161.6144"
   version="1.1"
   id="svg1"
   sodipodi:docname="calibre.svg"
   xmlns:inkscape="http://www.inkscape.org/namespaces/inkscape"
   xmlns:sodipodi="http://sodipodi.sourceforge.net/DTD/sodipodi-0.dtd"
   xmlns="http://www.w3.org/2000/svg"
   xmlns:svg="http://www.w3.org/2000/svg"
   xmlns:rdf="http://www.w3.org/1999/02/22-rdf-syntax-ns#"
   xmlns:cc="http://creativecommons.org/ns#"
   xmlns:dc="http://purl.org/dc/elements/1.1/">
  <defs
     id="defs1">
    <filter
       inkscape:label="Combined Lighting"
       inkscape:menu="Bevels"
       inkscape:menu-tooltip="Basic specular bevel to use for building textures"
       style="color-interpolation-filters:sRGB"
       id="filter152"
       x="-0.26565712"
       y="-0.27688474"
       width="1.5313142"
       height="1.5537695">
      <feGaussianBlur
         stdDeviation="6"
         in="SourceGraphic"
         result="result0"
         id="feGaussianBlur150" />
      <feDiffuseLighting
         lighting-color="#ffffff"
         diffuseConstant="1"
         surfaceScale="4"
         result="result5"
         id="feDiffuseLighting150">
        <feDistantLight
           elevation="45"
           azimuth="235"
           id="feDistantLight150" />
      </feDiffuseLighting>
      <feComposite
         k1="1.4"
         in2="SourceGraphic"
         in="result5"
         result="fbSourceGraphic"
         operator="arithmetic"
         id="feComposite150"
         k2="0"
         k3="0"
         k4="0" />
      <feGaussianBlur
         result="result0"
         in="fbSourceGraphic"
         stdDeviation="6"
         id="feGaussianBlur151" />
      <feSpecularLighting
         specularExponent="25"
         specularConstant="1"
         surfaceScale="4"
         lighting-color="#ffffff"
         result="result1"
         in="result0"
         id="feSpecularLighting151">
        <feDistantLight
           azimuth="235"
           elevation="45"
           id="feDistantLight151" />
      </feSpecularLighting>
      <feComposite
         k3="1"
         k2="1"
         operator="arithmetic"
         in="fbSourceGraphic"
         in2="result1"
         result="result4"
         id="feComposite151"
         k1="0"
         k4="0" />
      <feComposite
         operator="in"
         result="result2"
         in2="SourceGraphic"
         in="result4"
         id="feComposite152" />
    </filter>
  </defs>
  <sodipodi:namedview
     id="namedview1"
     pagecolor="#ffffff"
     bordercolor="#111111"
     borderopacity="1"
     inkscape:showpageshadow="0"
     inkscape:pageopacity="0"
     inkscape:pagecheckerboard="1"
     inkscape:deskcolor="#d1d1d1" />
  <title
     id="title1">Calibre Icon</title>
  <desc
     id="desc1">This is shape (source) for Clarity vector icon theme for gtk</desc>
  <metadata
     id="metadata1">
    <rdf:RDF>
      <cc:Work
         rdf:about="">
        <dc:title>Calibre Icon</dc:title>
        <dc:description>This is shape (source) for Clarity vector icon theme for gtk</dc:description>
        <dc:creator>
          <cc:Agent>
            <dc:title>Jakub Jankiewicz</dc:title>
          </cc:Agent>
        </dc:creator>
        <dc:rights>
          <cc:Agent>
            <dc:title>Jakub Jankiewicz</dc:title>
          </cc:Agent>
        </dc:rights>
        <dc:date>2010</dc:date>
        <dc:format>image/svg+xml</dc:format>
        <dc:type
           rdf:resource="http://purl.org/dc/dcmitype/StillImage" />
        <cc:license
           rdf:resource="http://creativecommons.org/licenses/by-sa/3.0/" />
      </cc:Work>
    </rdf:RDF>
  </metadata>
  <path
     d="m 132.57316,28.809297 c -0.48048,-0.05338 -1.02348,0.125808 -1.53599,0.467477 -2.05008,1.366717 -6.14036,5.244746 -7.27929,6.611462 -1.13893,1.366716 -0.72633,4.285978 0.86817,4.741552 1.5945,0.455572 2.33738,1.410708 2.33738,3.005209 0,0 0.34626,5.272025 0,11.620145 -5.87376,-7.790407 -14.05329,-10.458665 -17.55067,-10.630756 -3.61881,-0.178066 -9.0446,1.188219 -12.968897,4.41999 -2.869701,-3.6987 -6.457131,-7.974025 -13.222922,-12.02084 -6.295136,-3.765303 -16.638873,-5.701495 -27.572603,-3.19585 -10.933726,2.505648 -19.149067,11.324863 -23.908111,26.913322 -5.080909,16.64273 -2.939195,29.777498 1.594234,42.330362 6.419829,17.77622 22.961293,26.19574 30.873302,28.65957 7.027156,2.18827 13.618051,0.9809 19.084914,-2.89146 5.466864,-3.87236 6.955951,-10.72755 6.272595,-15.28327 -0.683358,-4.55572 -2.720958,-9.34954 -12.287969,-9.34954 0,0 -4.109441,0.88835 -5.476159,2.93842 -1.366714,2.05008 -1.610036,5.23285 0.667825,6.14399 2.277859,0.91114 3.469057,-0.67508 4.607988,1.60278 1.13893,2.27786 -0.955134,3.41781 -3.00521,3.87338 -2.050073,0.45557 -3.427105,0.4473 -9.349541,-1.60278 -5.922435,-2.05007 -10.018384,-6.34172 -13.890747,-11.35301 -3.872362,-5.0113 -7.236312,-9.113932 -8.147457,-24.375593 -0.911143,-15.261664 4.283537,-24.748512 10.750377,-31.219294 5.90759,-5.911191 15.09678,-6.685451 22.525526,-4.662287 6.000835,1.634284 11.935411,8.740205 12.841641,11.134417 0.970985,2.565291 0.767354,6.29605 -0.371575,8.118337 -1.13893,1.822289 -3.205557,3.374836 -3.205557,4.741553 0,1.366715 1.847116,3.645594 4.808336,3.873381 2.961216,0.227785 8.343327,0.193145 10.3934,0.193145 2.05007,0 2.92096,-1.176577 2.92096,-2.087721 0,-0.911143 -0.57638,-3.52816 -0.57638,-3.52816 l 10.21771,-0.200348 c 0,0 0.2846,0.422322 0.2846,2.016824 0,1.594504 0.98679,2.636368 2.12573,2.636368 1.13893,0 6.00371,-0.01196 7.14264,-0.467477 1.13894,-0.455572 1.62907,-2.879687 2.08464,-1.968543 0.45557,0.911143 1.82694,2.270602 2.73808,2.270602 0.91114,0 5.4689,0.227785 7.74676,0 2.27787,-0.227786 2.51393,-1.811402 1.60278,-3.405904 -0.91115,-1.594502 -2.49838,-2.047464 -2.2706,-5.008682 0.22778,-2.96122 0.66782,-27.102784 0.66782,-30.519574 0,-2.562592 -1.09627,-4.381043 -2.53773,-4.541197 z m -25.1102,29.771616 c 2.46891,0 4.9419,1.602779 4.9419,1.602779 h -9.08241 c 0,0 1.67161,-1.602779 4.14051,-1.602779 z"
     id="path1"
     style="fill:#efa911;fill-opacity:1;filter:url(#filter152)" />
</svg>
