<?xml version="1.0" encoding="UTF-8" standalone="no"?>
<!-- Uploaded to: SVG Repo, www.svgrepo.com, Generator: SVG Repo Mixer Tools -->

<svg
   width="800"
   height="800"
   viewBox="0 0 20 20"
   version="1.1"
   id="svg1"
   sodipodi:docname="call.svg"
   inkscape:export-filename="call.svg"
   inkscape:export-xdpi="96"
   inkscape:export-ydpi="96"
   xmlns:inkscape="http://www.inkscape.org/namespaces/inkscape"
   xmlns:sodipodi="http://sodipodi.sourceforge.net/DTD/sodipodi-0.dtd"
   xmlns="http://www.w3.org/2000/svg"
   xmlns:svg="http://www.w3.org/2000/svg">
  <sodipodi:namedview
     id="namedview1"
     pagecolor="#ffffff"
     bordercolor="#111111"
     borderopacity="1"
     inkscape:showpageshadow="0"
     inkscape:pageopacity="0"
     inkscape:pagecheckerboard="1"
     inkscape:deskcolor="#d1d1d1" />
  <title
     id="title1">call [#191]</title>
  <desc
     id="desc1">Created with Sketch.</desc>
  <defs
     id="defs1" />
  <g
     id="Page-1"
     stroke="none"
     stroke-width="1"
     fill="none"
     fill-rule="evenodd"
     style="fill:none;stroke:#00ffff;stroke-opacity:1"
     transform="matrix(0.9472368,0,0,0.93543346,0.5460695,0.7946825)">
    <g
       id="Dribbble-Light-Preview"
       transform="translate(-140,-7319)"
       fill="#000000"
       style="fill:none;stroke:#00ffff;stroke-opacity:1">
      <g
         id="icons"
         transform="translate(56,160)"
         style="fill:none;stroke:#00ffff;stroke-opacity:1">
        <path
           d="m 94,7167 v 2 h 2 c 0,-1.105 -0.895,-2 -2,-2 m 0,-4 v 2 c 2.206,0 4,1.794 4,4 h 2 c 0,-3.314 -2.686,-6 -6,-6 m 0,-4 v 2 c 4.411,0 8,3.589 8,8 h 2 c 0,-5.523 -4.477,-10 -10,-10 m 4.652,18.234 c -0.011,0.031 -0.012,0.036 0,0 m -0.535,-2.656 c -0.695,-0.374 -1.398,-0.8 -2.125,-1.097 -1.405,-0.573 -1.31,1.121 -2.313,1.67 -0.652,0.357 -1.572,-0.29 -2.141,-0.648 -0.994,-0.626 -1.875,-1.45 -2.607,-2.403 -0.375,-0.487 -1.203,-1.403 -1.101,-2.086 0.162,-1.084 1.444,-1.138 1.077,-2.464 -0.196,-0.71 -0.547,-1.409 -0.81,-2.093 -0.352,-0.917 -0.497,-1.504 -1.524,-1.454 -0.742,0.036 -1.234,0.353 -1.69,0.948 -1.234,1.607 -1.048,3.774 -0.219,5.537 1.174,2.495 3.186,4.847 5.335,6.367 1.462,1.034 3.388,1.973 5.158,2.132 1.296,0.117 3.109,-0.584 3.573,-1.991 -0.032,0.098 -0.063,0.193 -0.078,0.238 0.011,-0.035 0.035,-0.106 0.078,-0.238 0.047,-0.142 0.07,-0.213 0.081,-0.245 -0.014,0.042 -0.046,0.14 -0.08,0.242 0.408,-1.24 0.458,-1.838 -0.614,-2.415 m 0.694,2.173 c 0.008,-0.024 0.008,-0.026 0,0"
           id="call-[#191]"
           style="fill:none;stroke:#00ffff;stroke-opacity:1" />
      </g>
    </g>
  </g>
  <rect
     style="opacity:0.968885;fill:#00ffff;stroke:none;stroke-width:2.12769;stroke-opacity:1"
     id="rect1-2"
     width="0.48949355"
     height="0.46357223"
     x="9.6170244"
     y="0.33351541"
     ry="0.0053152754" />
  <rect
     style="opacity:0.968885;fill:#00ffff;stroke:none;stroke-width:2.12769;stroke-opacity:1"
     id="rect1-5"
     width="0.48949355"
     height="0.46357223"
     x="9.625"
     y="3.8999999"
     ry="0.0053152754" />
  <rect
     style="opacity:0.968885;fill:#00ffff;stroke:none;stroke-width:2.12769;stroke-opacity:1"
     id="rect1"
     width="0.48949355"
     height="0.46357223"
     x="9.6163187"
     y="7.4603939"
     ry="0.0053152754" />
</svg>
