<?xml version="1.0" encoding="UTF-8" standalone="no"?>
<!-- Uploaded to: SVG Repo, www.svgrepo.com, Generator: SVG Repo Mixer Tools -->

<svg
   width="800"
   height="800"
   viewBox="0 0 800 800"
   enable-background="new 0 0 800 800"
   id="GUIDE"
   version="1.1"
   xml:space="preserve"
   sodipodi:docname="design-education-painting-svgrepo-com.svg"
   inkscape:export-filename="../hd0/pastas_de_trabalho/desenvolvimento/devweb/verPersPage/vinsan_page/public/assets/design.svg"
   inkscape:export-xdpi="96"
   inkscape:export-ydpi="96"
   xmlns:inkscape="http://www.inkscape.org/namespaces/inkscape"
   xmlns:sodipodi="http://sodipodi.sourceforge.net/DTD/sodipodi-0.dtd"
   xmlns="http://www.w3.org/2000/svg"
   xmlns:svg="http://www.w3.org/2000/svg"><defs
   id="defs7" /><sodipodi:namedview
   id="namedview7"
   pagecolor="#ffffff"
   bordercolor="#111111"
   borderopacity="1"
   inkscape:showpageshadow="0"
   inkscape:pageopacity="0"
   inkscape:pagecheckerboard="1"
   inkscape:deskcolor="#d1d1d1" />&#10;&#10;<g
   id="g7"
   style="fill:#008080">&#10;&#10;<path
   d="m 776.557,119.544 c 0.357,-21.353 -7.375,-41.042 -21.771,-55.438 -7.812,-7.81 -20.475,-7.81 -28.285,0.001 -7.81,7.811 -7.811,20.474 0,28.284 6.663,6.662 10.236,16.067 10.063,26.484 -0.166,9.938 -3.928,19.534 -10.063,25.669 -12.725,12.725 -139.57,124.086 -238.635,210.734 L 463.586,331 c 72.32,-82.747 162.068,-185.064 197.172,-223.914 l 7.986,7.987 c 7.811,7.811 20.475,7.812 28.284,0.002 7.812,-7.81 7.813,-20.473 0.003,-28.284 L 674.35,64.108 c -3.75,-3.751 -8.838,-5.859 -14.142,-5.859 h -10e-4 c -5.305,0 -10.391,2.107 -14.142,5.857 -12.171,12.17 -86.618,96.725 -153.792,173.381 -18.065,-27.343 -42.194,-50.865 -70.895,-68.921 -41.949,-26.391 -90.855,-39.772 -145.362,-39.772 -11.991,0 -23.854,0.756 -35.257,2.249 -10.953,1.434 -18.669,11.474 -17.236,22.427 1.434,10.952 11.473,18.668 22.426,17.235 9.689,-1.268 19.805,-1.911 30.066,-1.911 82.994,0 152.612,37.208 188.714,100.146 -33.688,38.495 -62.632,71.651 -76.59,87.649 -24.918,3.395 -43.511,13.592 -56.621,31.078 -12.189,16.257 -17.532,35.673 -23.188,56.229 -6.82,24.786 -13.872,50.416 -33.983,70.526 -5.721,5.72 -7.432,14.322 -4.336,21.796 3.096,7.474 10.389,12.347 18.478,12.347 53.825,0 96.486,-11.473 126.799,-34.099 27.317,-20.391 43.6,-49.341 47.45,-84.105 51.533,-45.007 273.565,-239.051 292.047,-257.533 13.496,-13.495 21.432,-32.917 21.772,-53.284 z M 457.684,381.666 c -6.01,5.251 -11.836,10.341 -17.438,15.232 l -18.261,-18.26 c 4.887,-5.601 9.976,-11.432 15.226,-17.444 z m -66.323,100.745 c -15.732,11.744 -36.668,19.57 -62.509,23.403 8.793,-17.681 13.726,-35.608 18.045,-51.307 9.27,-33.688 14.916,-50.596 37.758,-56.63 l 36.929,36.928 c -4.066,19.658 -14.183,35.633 -30.223,47.606 z"
   id="path1"
   style="fill:#008080" />&#10;&#10;<path
   d="m 178.311,189.959 c 2.913,0 5.872,-0.64 8.671,-1.989 1.795,-0.866 3.639,-1.717 5.479,-2.528 10.105,-4.461 14.681,-16.269 10.22,-26.374 -4.461,-10.104 -16.268,-14.68 -26.374,-10.22 -2.247,0.992 -4.5,2.032 -6.697,3.091 -9.949,4.797 -14.126,16.752 -9.33,26.701 3.448,7.15 10.591,11.319 18.031,11.319 z"
   id="path2"
   style="fill:#008080" />&#10;&#10;<path
   d="m 322.839,570.789 c -11.035,-0.108 -20.099,8.729 -20.224,19.773 -0.863,76.887 -12.47,111.188 -78.964,111.188 -37.276,0 -76.396,-27.269 -107.328,-74.813 C 82.216,574.51 63.432,506.443 63.432,435.274 c 0,-92.393 27.9,-169.269 78.561,-216.465 8.082,-7.529 8.53,-20.185 1.001,-28.267 -7.529,-8.082 -20.185,-8.53 -28.267,-1.001 -29.841,27.801 -52.93,63.923 -68.627,107.363 -15.042,41.626 -22.668,88.181 -22.668,138.37 0,78.821 21.083,154.636 59.363,213.476 38.451,59.104 89.792,93.001 140.856,93.001 48.841,0 82.882,-17.187 101.175,-51.082 15.706,-29.104 17.416,-66.701 17.786,-99.657 0.124,-11.045 -8.728,-20.1 -19.773,-20.223 z"
   id="path3"
   style="fill:#008080" />&#10;&#10;<path
   d="m 421.257,274.597 c 0,-36.74 -29.891,-66.631 -66.631,-66.631 -36.741,0 -66.633,29.891 -66.633,66.631 0,36.741 29.892,66.633 66.633,66.633 36.74,-0.001 66.631,-29.892 66.631,-66.633 z m -93.264,0 c 0,-14.685 11.947,-26.631 26.633,-26.631 14.685,0 26.631,11.946 26.631,26.631 0,14.686 -11.946,26.633 -26.631,26.633 -14.686,-0.001 -26.633,-11.948 -26.633,-26.633 z"
   id="path4"
   style="fill:#008080" />&#10;&#10;<path
   d="m 195.826,365.177 c 36.741,0 66.632,-29.891 66.632,-66.631 0,-36.741 -29.891,-66.632 -66.632,-66.632 -36.741,0 -66.632,29.891 -66.632,66.632 0,36.74 29.891,66.631 66.632,66.631 z m 0,-93.263 c 14.685,0 26.632,11.947 26.632,26.632 0,14.685 -11.947,26.631 -26.632,26.631 -14.685,0 -26.632,-11.946 -26.632,-26.631 0,-14.685 11.948,-26.632 26.632,-26.632 z"
   id="path5"
   style="fill:#008080" />&#10;&#10;<path
   d="m 211.417,451.638 c 0,-36.741 -29.891,-66.633 -66.632,-66.633 -36.741,0 -66.632,29.892 -66.632,66.633 0,36.74 29.891,66.631 66.632,66.631 36.741,0 66.632,-29.891 66.632,-66.631 z m -66.632,26.631 c -14.685,0 -26.632,-11.946 -26.632,-26.631 0,-14.686 11.947,-26.633 26.632,-26.633 14.685,0 26.632,11.947 26.632,26.633 0,14.684 -11.947,26.631 -26.632,26.631 z"
   id="path6"
   style="fill:#008080" />&#10;&#10;<path
   d="m 214.792,674.175 c 36.741,0 66.633,-29.891 66.633,-66.631 0,-36.74 -29.892,-66.631 -66.633,-66.631 -36.74,0 -66.631,29.891 -66.631,66.631 0,36.74 29.891,66.631 66.631,66.631 z m 0,-93.262 c 14.686,0 26.633,11.946 26.633,26.631 0,14.685 -11.947,26.631 -26.633,26.631 -14.684,0 -26.631,-11.946 -26.631,-26.631 0,-14.685 11.947,-26.631 26.631,-26.631 z"
   id="path7"
   style="fill:#008080" />&#10;&#10;</g>&#10;&#10;</svg>
