<?xml version="1.0" encoding="UTF-8" standalone="no"?>
<!-- Uploaded to: SVG Repo, www.svgrepo.com, Generator: SVG Repo Mixer Tools -->

<svg
   fill="#000000"
   width="800"
   height="800"
   viewBox="0 0 64 64"
   data-name="Layer 1"
   id="Layer_1"
   version="1.1"
   sodipodi:docname="cloud-data-developer-svgrepo-com.svg"
   xmlns:inkscape="http://www.inkscape.org/namespaces/inkscape"
   xmlns:sodipodi="http://sodipodi.sourceforge.net/DTD/sodipodi-0.dtd"
   xmlns="http://www.w3.org/2000/svg"
   xmlns:svg="http://www.w3.org/2000/svg">
  <defs
     id="defs4" />
  <sodipodi:namedview
     id="namedview4"
     pagecolor="#ffffff"
     bordercolor="#111111"
     borderopacity="1"
     inkscape:showpageshadow="0"
     inkscape:pageopacity="0"
     inkscape:pagecheckerboard="1"
     inkscape:deskcolor="#d1d1d1" />
  <path
     d="M 47,23 H 17 a 1,1 0 0 0 -1,1 V 43 H 48 V 24 a 1,1 0 0 0 -1,-1 z m -1,17 a 1,1 0 0 1 -1,1 H 19 A 1,1 0 0 1 18,40 V 26 a 1,1 0 0 1 1,-1 h 26 a 1,1 0 0 1 1,1 z"
     id="path1"
     style="fill:#008080" />
  <polygon
     points="50.382,47 51.382,45 12.618,45 13.618,47 "
     id="polygon1"
     style="fill:#008080" />
  <path
     d="M 20,39 H 44 V 27 H 20 Z m 17.293,-8.293 1.414,-1.414 3,3 a 1,1 0 0 1 0,1.414 l -3,3 L 37.293,35.293 39.586,33 Z m -7.188,-1.154 1.79,0.894 -3,6 -1.79,-0.894 z m -7.812,2.74 3,-3 1.414,1.414 -2.293,2.293 2.293,2.293 -1.414,1.414 -3,-3 a 1,1 0 0 1 0,-1.414 z"
     id="path2"
     style="fill:#008080" />
  <path
     d="m 9,31 h 5 v -7 a 3,3 0 0 1 3,-3 h 30 a 3,3 0 0 1 3,3 v 7 A 10,10 0 0 0 50,11 H 49.39 A 1,1 0 0 1 48.447,10.333 9.486,9.486 0 0 0 30.874,9.539 1,1 0 0 1 29.255,9.824 9.5,9.5 0 0 0 13,16.5 V 20 a 1,1 0 0 1 -1,1 H 9 a 5,5 0 0 0 0,10 z m 47,-7 h -2 v -2 h 2 z M 50,14 a 6.006,6.006 0 0 1 6,6 h -2 a 4,4 0 0 0 -4,-4 z"
     id="path3"
     style="fill:#00ffff" />
  <path
     d="M 62,57 H 35.858 A 4,4 0 0 0 33,54.142 V 48 h -2 v 6.142 A 4,4 0 0 0 28.142,57 H 2 v 2 h 26.142 a 3.981,3.981 0 0 0 7.716,0 H 62 Z m -30,3 a 2,2 0 1 1 2,-2 2,2 0 0 1 -2,2 z"
     id="path4"
     style="fill:#00ffff" />
</svg>
