<?xml version="1.0" encoding="UTF-8" standalone="no"?>
<!-- Uploaded to: SVG Repo, www.svgrepo.com, Generator: SVG Repo Mixer Tools -->

<svg
   fill="#000000"
   version="1.2"
   id="H1"
   viewBox="-63 65 16384 16384"
   xml:space="preserve"
   sodipodi:docname="typewriter-write-type-writer-svgrepo-com.svg"
   inkscape:export-filename="../hd0/pastas_de_trabalho/desenvolvimento/devweb/verPersPage/vinsan_page/public/assets/write.svg"
   inkscape:export-xdpi="600"
   inkscape:export-ydpi="600"
   width="16384"
   height="16384"
   xmlns:inkscape="http://www.inkscape.org/namespaces/inkscape"
   xmlns:sodipodi="http://sodipodi.sourceforge.net/DTD/sodipodi-0.dtd"
   xmlns="http://www.w3.org/2000/svg"
   xmlns:svg="http://www.w3.org/2000/svg"><defs
   id="defs3" /><sodipodi:namedview
   id="namedview3"
   pagecolor="#ffffff"
   bordercolor="#111111"
   borderopacity="1"
   inkscape:showpageshadow="0"
   inkscape:pageopacity="0"
   inkscape:pagecheckerboard="1"
   inkscape:deskcolor="#d1d1d1"
   showgrid="false"
   inkscape:export-bgcolor="#ffffff00" />&#10;<g
   id="g3"
   style="fill:#008080">&#10;	<rect
   x="-30.200001"
   y="76.900002"
   width="62.5"
   height="5.1999998"
   id="rect1"
   style="fill:#008080" />&#10;	<rect
   x="-30.200001"
   y="87.300003"
   width="62.5"
   height="5.1999998"
   id="rect2"
   style="fill:#008080" />&#10;	<rect
   x="-30.200001"
   y="97.800003"
   width="62.5"
   height="5.1999998"
   id="rect3"
   style="fill:#008080" />&#10;	<path
   d="m 58.3,103 c 2.9,0 5.2,-2.3 5.2,-5.2 v -5.2 c 0,-2.9 -2.3,-5.2 -5.2,-5.2 H 53.1 C 53.1,81.6 48.4,77 42.7,77 V 66.5 h -83.4 v 10.4 c -5.7,0 -10.4,4.7 -10.4,10.4 h -5.2 c -2.9,0 -5.2,2.3 -5.2,5.2 v 5.2 c 0,2.9 2.3,5.2 5.2,5.2 h 5.2 v 5.2 c -5.8,0 -10.4,4.7 -10.4,10.4 V 181 c 0,5.8 4.7,10.4 10.4,10.4 H 53.1 c 5.8,0 10.4,-4.7 10.4,-10.4 v -62.4 c 0,-5.8 -4.7,-10.4 -10.4,-10.4 V 103 Z M -35.5,71.7 h 72.9 v 36.5 H 19.1 c -3.6,6.2 -10.3,10.5 -18.1,10.5 -7.8,0 -14.4,-4.3 -18,-10.5 h -18.5 z m 71.7,58.6 c 0,2.2 -1.7,3.9 -3.9,3.9 -2.2,0 -3.9,-1.7 -3.9,-3.9 0,-2.2 1.7,-3.9 3.9,-3.9 2.2,0 3.9,1.7 3.9,3.9 z m -66.4,3.9 c -2.2,0 -3.9,-1.7 -3.9,-3.9 0,-2.2 1.7,-3.9 3.9,-3.9 2.2,0 3.9,1.7 3.9,3.9 0,2.2 -1.7,3.9 -3.9,3.9 z m 3.9,27.3 c 0,2.2 -1.7,3.9 -3.9,3.9 -2.2,0 -3.9,-1.7 -3.9,-3.9 0,-2.1 1.7,-3.9 3.9,-3.9 2.2,0 3.9,1.7 3.9,3.9 z m 3.9,-19.5 c 2.2,0 3.9,1.7 3.9,3.9 0,2.2 -1.7,3.9 -3.9,3.9 -2.2,0 -3.9,-1.7 -3.9,-3.9 0,-2.2 1.7,-3.9 3.9,-3.9 z m 7.8,15.6 c 2.2,0 3.9,1.7 3.9,3.9 0,2.2 -1.7,3.9 -3.9,3.9 -2.2,0 -3.9,-1.7 -3.9,-3.9 0,-2.1 1.7,-3.9 3.9,-3.9 z m 0,-23.4 c -2.2,0 -3.9,-1.7 -3.9,-3.9 0,-2.2 1.7,-3.9 3.9,-3.9 2.2,0 3.9,1.7 3.9,3.9 0,2.2 -1.7,3.9 -3.9,3.9 z m 7.8,7.8 c 2.2,0 3.9,1.7 3.9,3.9 0,2.2 -1.7,3.9 -3.9,3.9 -2.2,0 -3.9,-1.7 -3.9,-3.9 0,-2.2 1.7,-3.9 3.9,-3.9 z M 1,157.6 c 2.2,0 3.9,1.7 3.9,3.9 0,2.2 -1.7,3.9 -3.9,3.9 -2.2,0 -3.9,-1.7 -3.9,-3.9 0,-2.1 1.8,-3.9 3.9,-3.9 z m 0,-23.4 c -2.1,0 -3.9,-1.7 -3.9,-3.9 0,-2.2 1.7,-3.9 3.9,-3.9 2.2,0 3.9,1.7 3.9,3.9 0,2.2 -1.7,3.9 -3.9,3.9 z m 7.8,7.8 c 2.2,0 3.9,1.7 3.9,3.9 0,2.2 -1.7,3.9 -3.9,3.9 -2.2,0 -3.9,-1.7 -3.9,-3.9 0,-2.2 1.7,-3.9 3.9,-3.9 z m 7.8,15.6 c 2.2,0 3.9,1.7 3.9,3.9 0,2.2 -1.7,3.9 -3.9,3.9 -2.2,0 -3.9,-1.7 -3.9,-3.9 0,-2.1 1.8,-3.9 3.9,-3.9 z m 0,-23.4 c -2.2,0 -3.9,-1.7 -3.9,-3.9 0,-2.2 1.7,-3.9 3.9,-3.9 2.2,0 3.9,1.7 3.9,3.9 0,2.2 -1.7,3.9 -3.9,3.9 z m 7.8,7.8 c 2.2,0 3.9,1.7 3.9,3.9 0,2.2 -1.7,3.9 -3.9,3.9 -2.2,0 -3.9,-1.7 -3.9,-3.9 0,-2.2 1.7,-3.9 3.9,-3.9 z m -70.3,-7.8 c -2.2,0 -3.9,-1.7 -3.9,-3.9 0,-2.2 1.7,-3.9 3.9,-3.9 2.2,0 3.9,1.7 3.9,3.9 0,2.2 -1.7,3.9 -3.9,3.9 z m 7.8,15.6 c -2.2,0 -3.9,-1.7 -3.9,-3.9 0,-2.2 1.7,-3.9 3.9,-3.9 2.2,0 3.9,1.7 3.9,3.9 0,2.2 -1.7,3.9 -3.9,3.9 z m 70.4,31.3 h -62.5 c -2.2,0 -3.9,-1.7 -3.9,-3.9 0,-2.2 1.7,-3.9 3.9,-3.9 h 62.5 c 2.2,0 3.9,1.7 3.9,3.9 0,2.1 -1.8,3.9 -3.9,3.9 z m 0,-15.6 c -2.2,0 -3.9,-1.7 -3.9,-3.9 0,-2.2 1.7,-3.9 3.9,-3.9 2.2,0 3.9,1.7 3.9,3.9 0,2.1 -1.8,3.9 -3.9,3.9 z m 7.8,-15.7 c -2.2,0 -3.9,-1.7 -3.9,-3.9 0,-2.2 1.7,-3.9 3.9,-3.9 2.2,0 3.9,1.7 3.9,3.9 0,2.2 -1.8,3.9 -3.9,3.9 z m 7.8,-15.6 c -2.2,0 -3.9,-1.7 -3.9,-3.9 0,-2.2 1.7,-3.9 3.9,-3.9 2.2,0 3.9,1.7 3.9,3.9 0,2.2 -1.8,3.9 -3.9,3.9 z"
   id="path3"
   style="fill:#008080" />&#10;</g>&#10;</svg>
