<?xml version="1.0" encoding="UTF-8" standalone="no"?>
<svg
   width="26"
   height="28"
   viewBox="0 0 26 28"
   fill="none"
   version="1.1"
   id="svg1"
   sodipodi:docname="icon-js.svg"
   inkscape:export-filename="icon-js.svg"
   inkscape:export-xdpi="96"
   inkscape:export-ydpi="96"
   inkscape:version="1.3 (0e150ed6c4, 2023-07-21)"
   xmlns:inkscape="http://www.inkscape.org/namespaces/inkscape"
   xmlns:sodipodi="http://sodipodi.sourceforge.net/DTD/sodipodi-0.dtd"
   xmlns="http://www.w3.org/2000/svg"
   xmlns:svg="http://www.w3.org/2000/svg">
  <defs
     id="defs1" />
  <sodipodi:namedview
     id="namedview1"
     pagecolor="#ffffff"
     bordercolor="#111111"
     borderopacity="1"
     inkscape:showpageshadow="0"
     inkscape:pageopacity="0"
     inkscape:pagecheckerboard="1"
     inkscape:deskcolor="#d1d1d1"
     showgrid="true"
     showguides="true"
     inkscape:zoom="5.6568543"
     inkscape:cx="8.5736697"
     inkscape:cy="9.8994949"
     inkscape:window-width="1300"
     inkscape:window-height="524"
     inkscape:window-x="30"
     inkscape:window-y="192"
     inkscape:window-maximized="1"
     inkscape:current-layer="svg1">
    <inkscape:grid
       id="grid3"
       units="px"
       originx="0"
       originy="0"
       spacingx="1"
       spacingy="1"
       empcolor="#0099e5"
       empopacity="0.30196078"
       color="#0099e5"
       opacity="0.14901961"
       empspacing="5"
       dotted="false"
       gridanglex="30"
       gridanglez="30"
       visible="true" />
    <sodipodi:guide
       position="13.037281,0.77638896"
       orientation="1,0"
       id="guide6"
       inkscape:locked="false" />
  </sodipodi:namedview>
  <path
     id="rect4"
     style="opacity:0.968885;fill:#f07f21;fill-opacity:1;stroke:#ffffff;stroke-width:3.96875;stroke-opacity:0.00661633"
     d="M 0.82421875 0.10546875 L 3.0546875 25.140625 L 13.048828 27.972656 L 23.095703 25.142578 L 25.324219 0.10546875 L 0.82421875 0.10546875 z M 17.833984 3.1503906 C 18.465772 3.1514922 19.089524 3.4084066 19.642578 3.9003906 C 20.274639 4.4626581 20.787326 5.3061329 21.117188 6.3261719 L 19.173828 8.296875 C 19.046525 7.7914145 18.823762 7.3584203 18.537109 7.0566406 C 18.250396 6.7548709 17.912866 6.5986189 17.568359 6.6074219 C 17.418188 6.5835619 17.266572 6.6098038 17.123047 6.6835938 C 16.979578 6.7574137 16.846806 6.8762014 16.734375 7.0351562 C 16.621943 7.1941111 16.530993 7.388408 16.46875 7.6054688 C 16.40651 7.8225285 16.374507 8.0586242 16.373047 8.296875 C 16.373047 9.4796218 16.836196 9.9570013 17.904297 10.689453 L 18.529297 11.111328 C 20.650853 12.547444 21.847656 14.011305 21.847656 17.302734 C 21.847656 20.851002 20.082762 22.794922 17.710938 22.794922 C 16.787094 22.887682 15.865837 22.55699 15.058594 21.841797 C 14.251294 21.126513 13.593191 20.056886 13.162109 18.763672 L 15.189453 16.898438 C 15.415781 17.622658 15.765527 18.23097 16.201172 18.654297 C 16.636873 19.077622 17.140769 19.298255 17.652344 19.291016 C 18.686874 19.291016 19.347656 18.475095 19.347656 17.347656 C 19.347656 15.996714 18.667414 15.516977 17.529297 14.730469 L 16.90625 14.308594 C 15.104922 13.097062 13.90625 11.579593 13.90625 8.3710938 C 13.90625 5.4148017 15.334915 3.1640625 17.564453 3.1640625 C 17.654903 3.1537025 17.743729 3.1502333 17.833984 3.1503906 z M 9.3125 3.3945312 L 11.808594 3.3945312 L 11.808594 16.849609 C 11.808594 20.929872 10.294034 22.787109 8.0820312 22.787109 C 7.30067 22.853869 6.5237611 22.546836 5.8554688 21.904297 C 5.1871824 21.261668 4.6587643 20.314135 4.3378906 19.1875 L 6.3691406 17.244141 C 6.7616442 18.342805 7.1188382 19.271484 7.9746094 19.271484 C 8.7946276 19.271484 9.3125 18.764275 9.3125 16.794922 L 9.3125 3.3945312 z " />
  <path
     id="rect4-2"
     style="opacity:0.968885;fill:#f69e20;fill-opacity:1;stroke:#ffffff;stroke-width:3.34534;stroke-opacity:0.00661633"
     d="M 12.923828 2.2988281 L 12.923828 25.791016 L 21.392578 23.404297 L 23.271484 2.2988281 L 12.923828 2.2988281 z M 17.832031 3.1484375 C 18.463818 3.149539 19.08757 3.4064529 19.640625 3.8984375 C 20.272687 4.4607046 20.785374 5.3041803 21.115234 6.3242188 L 19.169922 8.2949219 C 19.042619 7.7894606 18.82181 7.3584199 18.535156 7.0566406 C 18.248444 6.7548706 17.910912 6.5966666 17.566406 6.6054688 C 17.416234 6.5816058 17.264619 6.6078257 17.121094 6.6816406 C 16.977625 6.7554616 16.844854 6.8762014 16.732422 7.0351562 C 16.619991 7.1941112 16.52904 7.3884084 16.466797 7.6054688 C 16.404557 7.822529 16.372554 8.0566719 16.371094 8.2949219 C 16.371094 9.4776686 16.834243 9.9570017 17.902344 10.689453 L 18.527344 11.109375 C 20.6489 12.545492 21.845703 14.009352 21.845703 17.300781 C 21.845703 20.849049 20.080809 22.792969 17.708984 22.792969 C 16.785141 22.885729 15.863884 22.555037 15.056641 21.839844 C 14.24934 21.124559 13.591238 20.056886 13.160156 18.763672 L 15.1875 16.896484 C 15.413828 17.620705 15.763574 18.23097 16.199219 18.654297 C 16.63492 19.077622 17.138816 19.298255 17.650391 19.291016 C 18.684921 19.291016 19.345703 18.473142 19.345703 17.345703 C 19.345703 15.99476 18.665461 15.516977 17.527344 14.730469 L 16.902344 14.306641 C 15.101016 13.095109 13.904297 11.577641 13.904297 8.3691406 C 13.904297 5.4128488 15.331009 3.1640625 17.560547 3.1640625 C 17.650996 3.1537025 17.741776 3.1482801 17.832031 3.1484375 z " />
</svg>
