<?xml version="1.0" encoding="UTF-8" standalone="no"?>
<svg
   width="13.813047"
   height="15.496056"
   viewBox="0 0 13.813047 15.496056"
   fill="none"
   version="1.1"
   id="svg5"
   sodipodi:docname="icon-reading.svg"
   xmlns:inkscape="http://www.inkscape.org/namespaces/inkscape"
   xmlns:sodipodi="http://sodipodi.sourceforge.net/DTD/sodipodi-0.dtd"
   xmlns="http://www.w3.org/2000/svg"
   xmlns:svg="http://www.w3.org/2000/svg">
  <defs
     id="defs5" />
  <sodipodi:namedview
     id="namedview5"
     pagecolor="#ffffff"
     bordercolor="#111111"
     borderopacity="1"
     inkscape:showpageshadow="0"
     inkscape:pageopacity="0"
     inkscape:pagecheckerboard="1"
     inkscape:deskcolor="#d1d1d1"
     showgrid="false" />
  <path
     opacity="0.5"
     d="m 10.863805,4.63225 c 2.343,2.343 2.343,6.14245 0,8.48545 -2.343,2.343 -6.14245,2.343 -8.48545,0 -2.34300004,-2.343 -2.34300004,-6.14245 0,-8.48545 2.343,-2.343 6.14245,-2.343 8.48545,0"
     stroke="#5B1FA6"
     stroke-width="1.25"
     id="path1"
     style="stroke:#00f0ff;stroke-opacity:1" />
  <path
     opacity="0.5"
     d="m 6.996105,8.8735 c 0,-0.207 -0.168,-0.37425 -0.375,-0.3735 -0.207,7.5e-4 -0.375,0.1688 -0.375,0.3758 0,0.207 0.16725,0.3742 0.37425,0.3742 0.207,0 0.375,-0.168 0.37575,-0.3757"
     stroke="#5B1FA6"
     stroke-width="1.25"
     stroke-linecap="round"
     stroke-linejoin="round"
     id="path2"
     style="stroke:#00f0ff;stroke-opacity:1" />
  <path
     opacity="0.5"
     d="m 6.621105,5.875 v 3"
     stroke="#5B1FA6"
     stroke-width="1.25"
     id="path3"
     style="stroke:#00f0ff;stroke-opacity:1" />
  <path
     opacity="0.5"
     d="m 5.121105,0.625 h 3"
     stroke="#5B1FA6"
     stroke-width="1.25"
     id="path4"
     style="stroke:#00f0ff;stroke-opacity:1" />
  <path
     opacity="0.5"
     d="m 13.371105,3.625 -1.5,-1.5 0.75,0.75 -1.7572,1.75725"
     stroke="#5B1FA6"
     stroke-width="1.25"
     id="path5"
     style="stroke:#00f0ff;stroke-opacity:1" />
</svg>
