<?xml version="1.0" encoding="UTF-8" standalone="no"?>
<svg
   width="15.00669"
   height="15.030021"
   viewBox="0 0 15.00669 15.030021"
   fill="none"
   version="1.1"
   id="svg3"
   sodipodi:docname="icon-instagram.svg"
   xmlns:inkscape="http://www.inkscape.org/namespaces/inkscape"
   xmlns:sodipodi="http://sodipodi.sourceforge.net/DTD/sodipodi-0.dtd"
   xmlns="http://www.w3.org/2000/svg"
   xmlns:svg="http://www.w3.org/2000/svg">
  <defs
     id="defs3" />
  <sodipodi:namedview
     id="namedview3"
     pagecolor="#ffffff"
     bordercolor="#111111"
     borderopacity="1"
     inkscape:showpageshadow="0"
     inkscape:pageopacity="0"
     inkscape:pagecheckerboard="1"
     inkscape:deskcolor="#d1d1d1" />
  <path
     d="m 7.4975001,3.64334 c -1.02197,0 -2.00208,0.40598 -2.72472,1.12862 -0.72264,0.72264 -1.12862,1.70275 -1.12862,2.72476 0,1.0219 0.40598,2.002 1.12862,2.7247 0.72264,0.7226 1.70275,1.1286 2.72472,1.1286 1.02199,0 2.00209,-0.406 2.7246899,-1.1286 0.7227,-0.7227 1.1286,-1.7028 1.1286,-2.7247 0,-1.02201 -0.4059,-2.00212 -1.1286,-2.72476 C 9.4995901,4.04932 8.5194901,3.64334 7.4975001,3.64334 Z m 0,6.35588 c -0.66393,0 -1.30066,-0.2638 -1.77013,-0.7333 -0.46946,-0.4694 -0.73321,-1.1062 -0.73321,-1.7701 0,-0.6639 0.26375,-1.30064 0.73321,-1.7701 0.46947,-0.46947 1.1062,-0.73321 1.77013,-0.73321 0.66389,0 1.30069,0.26374 1.77009,0.73321 0.4695,0.46946 0.7331999,1.1062 0.7331999,1.7701 0,0.6639 -0.2636999,1.3007 -0.7331999,1.7701 -0.4694,0.4695 -1.1062,0.7333 -1.77009,0.7333 z"
     fill="#5B1FA6"
     id="path1"
     style="fill:#00ffff" />
  <path
     d="m 11.50329,4.4 c 0.4962,0 0.8984,-0.4022 0.8984,-0.89833 0,-0.49614 -0.4022,-0.89834 -0.8984,-0.89834 -0.4961,0 -0.8983,0.4022 -0.8983,0.89834 0,0.49613 0.4022,0.89833 0.8983,0.89833 z"
     fill="#5B1FA6"
     id="path2"
     style="fill:#00ffff" />
  <path
     d="m 14.60919,2.58833 c -0.1929,-0.49818 -0.4877,-0.95059 -0.8656,-1.32828 -0.3778,-0.37768995 -0.8303,-0.67231995 -1.3286,-0.86504995 -0.583,-0.21887 -1.199,-0.33721 -1.8217,-0.35 C 9.7907901,0.01000005 9.5366901,4.5471191e-8 7.5016901,4.5471191e-8 c -2.03502,0 -2.29586,0 -3.09169,0.04500000452881 -0.62218,0.01213 -1.2377,0.1305 -1.82,0.35 -0.49839,0.1925 -0.95103,0.48706 -1.32889,0.86476995 C 0.88325006,1.63749 0.58852006,2.09002 0.39583006,2.58833 0.17692006,3.17134 0.05884006,3.78737 0.04667006,4.41 0.01083006,5.21167 6.1950684e-8,5.46583 6.1950684e-8,7.50162 c 0,2.035 0,2.2942 0.04666999804932,3.0917 0.0125,0.6233 0.13,1.2383 0.34916,1.8225 0.19323,0.4981 0.48825,0.9505 0.86620004,1.3282 0.37795,0.3776 0.83052,0.6723 1.3288,0.8651 0.5812,0.2277 1.19698,0.3545 1.82084,0.375 0.8025,0.035 1.05666,0.0459 3.09162,0.0459 2.035,0 2.2959,0 3.0916999,-0.0459 0.6226,-0.0126 1.2385,-0.1307 1.8217,-0.3491 0.4981,-0.1932 0.9505,-0.4881 1.3283,-0.8659 0.3778,-0.3778 0.6727,-0.8302 0.8658,-1.3283 0.2192,-0.5833 0.3367,-1.1983 0.3492,-1.8217 0.0358,-0.8016 0.0467,-1.0558 0.0467,-3.0916 0,-2.03585 0,-2.29419 -0.0467,-3.09169 -0.0097,-0.63143 -0.1284,-1.25646 -0.3508,-1.8475 z m -1.015,7.94329 c -0.0054,0.4803 -0.0931,0.9561 -0.2592,1.4067 -0.1251,0.3241 -0.3167,0.6183 -0.5624,0.8639 -0.2457,0.2456 -0.5401,0.437 -0.8643,0.5619 -0.4456,0.1654 -0.9163,0.2531 -1.3916,0.2592 -0.7916999,0.0367 -1.0149999,0.0458 -3.0450199,0.0458 -2.03167,0 -2.23917,0 -3.04584,-0.0458 -0.47506,-0.0058 -0.94556,-0.0935 -1.39083,-0.2592 -0.32526,-0.1241 -0.62083,-0.3152 -0.86759,-0.5608 -0.24676,-0.2456 -0.43921,-0.5403 -0.56491,-0.865 -0.1638,-0.4458 -0.25141,-0.916 -0.25917,-1.3908 -0.03583,-0.7917 -0.04416,-1.015 -0.04416,-3.045 0,-2.03085 0,-2.23835 0.04416,-3.04585 0.00539,-0.47998 0.09305,-0.95549 0.25917,-1.40584 0.25417,-0.6575 0.775,-1.175 1.4325,-1.42666 0.44549,-0.16489 0.91585,-0.25253 1.39083,-0.25917 0.7925,-0.03583 1.015,-0.04583 3.04584,-0.04583 2.03082,0 2.23912,0 3.0450199,0.04583 0.4753,0.00572 0.9461,0.09339 1.3916,0.25917 0.3241,0.12523 0.6185,0.31683 0.8642,0.56252 0.2457,0.24569 0.4373,0.54004 0.5625,0.86414 0.1638,0.4458 0.2514,0.91597 0.2592,1.39084 0.0358,0.7925 0.045,1.015 0.045,3.04583 0,2.03002 0,2.24832 -0.0359,3.04502 h -0.0091 z"
     fill="#5B1FA6"
     id="path3"
     style="fill:#00ffff" />
</svg>
