<?xml version="1.0" encoding="UTF-8" standalone="no"?>
<svg
   width="13.176941"
   height="13.177"
   viewBox="0 0 13.176941 13.177"
   fill="none"
   version="1.1"
   id="svg3"
   sodipodi:docname="icon-react.svg"
   xmlns:inkscape="http://www.inkscape.org/namespaces/inkscape"
   xmlns:sodipodi="http://sodipodi.sourceforge.net/DTD/sodipodi-0.dtd"
   xmlns="http://www.w3.org/2000/svg"
   xmlns:svg="http://www.w3.org/2000/svg">
  <defs
     id="defs3" />
  <sodipodi:namedview
     id="namedview3"
     pagecolor="#ffffff"
     bordercolor="#111111"
     borderopacity="1"
     inkscape:showpageshadow="0"
     inkscape:pageopacity="0"
     inkscape:pagecheckerboard="1"
     inkscape:deskcolor="#d1d1d1" />
  <path
     d="m 3.9218096,1.2551738 c 2.94549,1.47274 6.5271904,5.05444 7.9999904,7.99992 1.4727,2.9455002 0.2788,4.1394002 -2.6667004,2.6667002 -2.94548,-1.4728 -6.52718,-5.0544902 -7.99993,-7.9999802 -1.47274004,-2.94548998 -0.27884004,-4.13938998 2.66664,-2.66664"
     stroke="#F67ACB"
     stroke-width="1.25"
     stroke-linecap="round"
     stroke-linejoin="round"
     id="path1"
     style="stroke:#00f0ff;stroke-opacity:1" />
  <path
     d="M 9.2550996,1.2552338 C 12.2006,-0.21750618 13.3945,0.97639382 11.9218,3.9218738 10.449,6.8673638 6.8673096,10.449094 3.9218096,11.921794 c -2.94549004,1.4728 -4.13938004,0.2789 -2.66664,-2.6666002 1.47275,-2.94551 5.05445,-6.52721 7.99993,-7.99996"
     stroke="#F67ACB"
     stroke-width="1.25"
     stroke-linecap="round"
     stroke-linejoin="round"
     id="path2"
     style="stroke:#00f0ff;stroke-opacity:1" />
  <path
     d="m 6.8299296,6.5884538 c 0,0.138 -0.108,0.25 -0.24133,0.25 -0.13333,0 -0.24133,-0.112 -0.24133,-0.25 0,-0.138 0.108,-0.25 0.24133,-0.25 0.13333,0 0.24133,0.112 0.24133,0.25"
     stroke="#9995A6"
     stroke-width="1.25"
     stroke-linecap="round"
     stroke-linejoin="round"
     id="path3"
     style="fill:none;stroke:#52c7c8;stroke-opacity:1" />
</svg>
