<?xml version="1.0" encoding="UTF-8" standalone="no"?>
<svg
   width="26"
   height="28"
   viewBox="0 0 26 28"
   fill="none"
   version="1.1"
   id="svg1"
   sodipodi:docname="icon-css.svg"
   inkscape:export-filename="icon-css.svg"
   inkscape:export-xdpi="96"
   inkscape:export-ydpi="96"
   inkscape:version="1.3 (0e150ed6c4, 2023-07-21)"
   xmlns:inkscape="http://www.inkscape.org/namespaces/inkscape"
   xmlns:sodipodi="http://sodipodi.sourceforge.net/DTD/sodipodi-0.dtd"
   xmlns="http://www.w3.org/2000/svg"
   xmlns:svg="http://www.w3.org/2000/svg">
  <defs
     id="defs1" />
  <sodipodi:namedview
     id="namedview1"
     pagecolor="#ffffff"
     bordercolor="#111111"
     borderopacity="1"
     inkscape:showpageshadow="0"
     inkscape:pageopacity="0"
     inkscape:pagecheckerboard="1"
     inkscape:deskcolor="#d1d1d1"
     showguides="true"
     inkscape:zoom="8"
     inkscape:cx="8.9375"
     inkscape:cy="11.5"
     inkscape:window-width="1300"
     inkscape:window-height="542"
     inkscape:window-x="30"
     inkscape:window-y="174"
     inkscape:window-maximized="1"
     inkscape:current-layer="svg1">
    <sodipodi:guide
       position="13.12191,5.8490595"
       orientation="1,0"
       id="guide3"
       inkscape:locked="false" />
    <sodipodi:guide
       position="52.458484,15.957088"
       orientation="1,0"
       id="guide4"
       inkscape:locked="false" />
    <sodipodi:guide
       position="67.970639,28.795495"
       orientation="0,-1"
       id="guide5"
       inkscape:locked="false" />
  </sodipodi:namedview>
  <path
     id="path1-6-6-2"
     style="opacity:1;fill:#0774b9;fill-opacity:1"
     d="M 0.89893591,-8.3861656e-4 3.1313579,25.155411 13.123545,27.999161 23.172373,25.155411 25.398936,-8.3861656e-4 Z M 5.4360449,4.975724 20.812998,4.979634 19.393076,20.547993 13.125498,22.331197 6.7524519,20.346822 6.4126079,15.848775 h 3.042968 l 0.222657,2.460937 3.4472651,0.947266 3.394532,-0.939453 0.427734,-4.109375 H 9.7348729 l -0.28125,-3.001953 H 17.20167 L 17.496592,8.0362709 5.6840919,8.0343209 Z" />
  <path
     id="path1-6-6-2-7"
     style="fill:#3397d3;stroke-width:0.816312;fill-opacity:1"
     d="m 13.123545,2.5655674 v 2.4140629 l 7.6875,0.00195 -1.419922,15.5683597 -6.267578,1.783203 v 3.08789 l 0.0039,0.002 8.203124,-2.322265 1.81836,-20.5351567 z m 0,5.4726566 v 3.169922 h 4.076172 l 0.294922,-3.169922 z m 0,6.171875 v 5.048828 l 3.394531,-0.939453 0.427735,-4.109375 z" />
</svg>
