<?xml version="1.0" encoding="UTF-8" standalone="no"?>
<svg
   width="12.396394"
   height="13.912801"
   viewBox="0 0 12.396394 13.912801"
   fill="none"
   version="1.1"
   id="svg5"
   sodipodi:docname="icon-timer.svg"
   xmlns:inkscape="http://www.inkscape.org/namespaces/inkscape"
   xmlns:sodipodi="http://sodipodi.sourceforge.net/DTD/sodipodi-0.dtd"
   xmlns="http://www.w3.org/2000/svg"
   xmlns:svg="http://www.w3.org/2000/svg">
  <defs
     id="defs5" />
  <sodipodi:namedview
     id="namedview5"
     pagecolor="#ffffff"
     bordercolor="#111111"
     borderopacity="1"
     inkscape:showpageshadow="0"
     inkscape:pageopacity="0"
     inkscape:pagecheckerboard="1"
     inkscape:deskcolor="#d1d1d1" />
  <path
     d="m 9.725747,4.18701 c 2.0827,2.08267 2.0827,5.45996 0,7.54266 -2.08264,2.0827 -5.45998,2.0827 -7.54264,0 -2.08266997,-2.0827 -2.08266997,-5.45999 0,-7.54266 2.08266,-2.08266 5.46,-2.08266 7.54264,0"
     stroke="#F67ACB"
     stroke-width="1.25"
     id="path1"
     style="fill:none;stroke:#00f0ff;stroke-opacity:1" />
  <path
     d="m 6.287767,7.95702 c 0,-0.184 -0.14933,-0.33267 -0.33333,-0.332 -0.184,6.6e-4 -0.33333,0.15 -0.33333,0.334 0,0.18399 0.14866,0.33266 0.33266,0.33266 0.184,0 0.33334,-0.14933 0.334,-0.334"
     stroke="#F67ACB"
     stroke-width="1.25"
     stroke-linecap="round"
     stroke-linejoin="round"
     id="path2"
     style="stroke:#00f0ff;stroke-opacity:1" />
  <path
     d="M 5.954437,5.29167 V 7.95834"
     stroke="#F67ACB"
     stroke-width="1.25"
     id="path3"
     style="stroke:#00f0ff;stroke-opacity:1" />
  <path
     d="m 4.621107,0.62500002 h 2.66666"
     stroke="#F67ACB"
     stroke-width="1.25"
     id="path4"
     style="stroke:#00f0ff;stroke-opacity:1" />
  <path
     d="m 11.954447,3.29166 -1.3333,-1.33333 0.6666,0.66666 -1.562,1.562"
     stroke="#F67ACB"
     stroke-width="1.25"
     id="path5"
     style="stroke:#00f0ff;stroke-opacity:1" />
</svg>
