<?xml version="1.0" encoding="UTF-8" standalone="no"?>
<svg
   width="15.170879"
   height="15.14494"
   viewBox="0 0 15.170879 15.14494"
   fill="none"
   version="1.1"
   id="svg2"
   sodipodi:docname="icon-linkedin.svg"
   xmlns:inkscape="http://www.inkscape.org/namespaces/inkscape"
   xmlns:sodipodi="http://sodipodi.sourceforge.net/DTD/sodipodi-0.dtd"
   xmlns="http://www.w3.org/2000/svg"
   xmlns:svg="http://www.w3.org/2000/svg">
  <defs
     id="defs2" />
  <sodipodi:namedview
     id="namedview2"
     pagecolor="#ffffff"
     bordercolor="#111111"
     borderopacity="1"
     inkscape:showpageshadow="0"
     inkscape:pageopacity="0"
     inkscape:pagecheckerboard="1"
     inkscape:deskcolor="#d1d1d1" />
  <path
     d="m 1.8233399,3.6466699 c 1.007,0 1.82333,-0.81634 1.82333,-1.82334 0,-1.00700002 -0.81633,-1.82333001886597 -1.82333,-1.82333001886597 C 0.81633994,-1.1886597e-7 -5.6533814e-8,0.81632988 -5.6533814e-8,1.8233299 c 0,1.007 0.816339996533814,1.82334 1.823339956533814,1.82334 z"
     fill="#5B1FA6"
     id="path1"
     style="fill:#008080" />
  <path
     d="M 5.3683399,5.0282899 V 15.14414 h 3.14084 v -5.0025 c 0,-1.3200001 0.2483,-2.5983501 1.8850001,-2.5983501 1.6142,0 1.6342,1.50915 1.6342,2.6816501 v 4.92 h 3.1425 V 9.5974399 c 0,-2.72498 -0.5867,-4.81915 -3.7717,-4.81915 -1.5292001,0 -2.5542001,0.83917 -2.9733001,1.63333 h -0.0425 v -1.38333 z m -5.11833996,0 H 3.3958399 V 15.14414 H 0.24999994 Z"
     fill="#5B1FA6"
     id="path2"
     style="fill:#008080" />
</svg>
