<?xml version="1.0" encoding="UTF-8" standalone="no"?>
<svg
   width="31.403099"
   height="27.999971"
   viewBox="0 0 31.403099 27.999971"
   fill="none"
   version="1.1"
   id="svg2"
   sodipodi:docname="icon-react-xs.svg"
   xmlns:inkscape="http://www.inkscape.org/namespaces/inkscape"
   xmlns:sodipodi="http://sodipodi.sourceforge.net/DTD/sodipodi-0.dtd"
   xmlns="http://www.w3.org/2000/svg"
   xmlns:svg="http://www.w3.org/2000/svg">
  <defs
     id="defs2" />
  <sodipodi:namedview
     id="namedview2"
     pagecolor="#ffffff"
     bordercolor="#111111"
     borderopacity="1"
     inkscape:showpageshadow="0"
     inkscape:pageopacity="0"
     inkscape:pagecheckerboard="1"
     inkscape:deskcolor="#d1d1d1"
     showgrid="false" />
  <g
     opacity="0.5"
     id="g2"
     style="opacity:1;fill:#00ffff;fill-opacity:1">
    <path
       d="M 25.8188,9.07519 C 25.4843,8.96092 25.1474,8.85451 24.8081,8.75594 24.8643,8.52697 24.9162,8.29669 24.9638,8.0651 25.7292,4.34268 25.2287,1.34381 23.5206,0.356616 21.8851,-0.590671 19.2028,0.396522 16.4971,2.75689 16.231,2.98979 15.9704,3.22966 15.7153,3.47651 15.5452,3.31253 15.3707,3.15203 15.1919,2.99502 12.3559,0.471102 9.51343,-0.591979 7.80727,0.398485 6.17176,1.34774 5.68569,4.1667 6.37456,7.69482 6.44347,8.04373 6.52089,8.39111 6.6068,8.73697 6.21583,8.84781 5.82816,8.96997 5.44428,9.10332 2.12355,10.2645 0,12.0852 0,13.9732 c 0,1.9508 2.27925,3.9069 5.74195,5.093 0.28087,0.0955 0.56436,0.1843 0.85046,0.2663 -0.0929,0.3702 -0.17511,0.7447 -0.24663,1.1232 -0.65421,3.4673 -0.14393,6.2195 1.48831,7.1629 1.68588,0.9741 4.51401,-0.0268 7.27081,-2.4408 0.2181,-0.1911 0.4361,-0.3928 0.6542,-0.6052 0.2757,0.2665 0.5591,0.5251 0.8505,0.7759 2.6691,2.3015 5.3049,3.2311 6.9345,2.2851 1.6846,-0.9773 2.2322,-3.9343 1.5211,-7.5318 -0.0546,-0.2748 -0.1174,-0.5552 -0.1884,-0.8413 0.1988,-0.0589 0.3936,-0.1197 0.5842,-0.1825 3.5981,-1.1953 5.9421,-3.1278 5.9421,-5.1028 C 31.4018,12.078 29.2102,10.2456 25.8188,9.07519 Z M 17.3796,3.77091 C 19.6974,1.74876 21.8641,0.950633 22.852,1.5211 23.9033,2.12885 24.3122,4.5795 23.6514,7.79361 23.6078,8.00295 23.5607,8.21164 23.5101,8.41968 22.1269,8.10505 20.7242,7.883 19.3114,7.75501 18.5025,6.58979 17.6158,5.48057 16.6573,4.43492 c 0.2347,-0.22766 0.475,-0.449 0.721,-0.66401 z M 9.27203,15.5865 c 0.28392,0.5495 0.58072,1.0923 0.89037,1.6283 0.3153,0.5469 0.644,1.0858 0.9859,1.6165 C 10.1762,18.7256 9.21017,18.57 8.25409,18.3649 8.53147,17.4673 8.87297,16.5351 9.27203,15.5865 Z m 0,-3.1618 C 8.87951,11.4964 8.54717,10.5831 8.27437,9.70126 9.17063,9.50042 10.1258,9.33622 11.1215,9.21192 10.7878,9.73267 10.4668,10.261 10.1585,10.7971 9.85013,11.3331 9.55399,11.8756 9.27007,12.4247 Z m 0.71308,1.5812 c 0.41349,-0.8622 0.85879,-1.7079 1.33589,-2.537 0.4767,-0.8286 0.9841,-1.63832 1.5223,-2.42904 0.9342,-0.07065 1.892,-0.10794 2.8596,-0.10794 0.9675,0 1.9312,0.03729 2.8647,0.1086 0.5325,0.78897 1.0369,1.59578 1.5132,2.42058 0.4762,0.8247 0.9274,1.6664 1.3535,2.5252 -0.4204,0.8653 -0.8705,1.7144 -1.3502,2.5475 -0.4759,0.8286 -0.9774,1.6407 -1.5047,2.4362 -0.9323,0.0654 -1.8972,0.1014 -2.8785,0.1014 -0.9813,0 -1.9279,-0.0307 -2.8432,-0.0903 -0.5421,-0.7933 -1.0537,-1.6065 -1.5347,-2.4395 -0.4811,-0.833 -0.9277,-1.6782 -1.33985,-2.5357 z m 11.26019,3.1997 c 0.3162,-0.5486 0.6197,-1.1045 0.9106,-1.6675 0.3988,0.9041 0.7508,1.8282 1.0546,2.7686 -0.9673,0.2178 -1.9454,0.3848 -2.9302,0.5004 0.3324,-0.5273 0.654,-1.0611 0.965,-1.6015 z m 0.8975,-4.7802 c -0.2896,-0.5517 -0.5907,-1.0969 -0.9034,-1.6355 -0.3053,-0.5313 -0.6235,-1.05593 -0.9545,-1.57406 1.0016,0.12692 1.9626,0.2957 2.8634,0.50178 -0.2896,0.91888 -0.6252,1.82258 -1.0055,2.70778 z M 15.7159,5.39595 c 0.6533,0.7138 1.2701,1.46011 1.8482,2.23607 -1.2365,-0.05888 -2.4738,-0.05888 -3.712,0 0.6104,-0.80729 1.2351,-1.55635 1.8638,-2.23607 z M 8.48241,1.56101 c 1.05065,-0.609722 3.37369,0.26168 5.82239,2.43821 0.1564,0.13935 0.314,0.28524 0.471,0.43636 -0.9634,1.04549 -1.8563,2.15375 -2.673,3.31746 C 10.6931,7.88005 9.29323,8.09858 7.91194,8.40725 7.83213,8.08625 7.76017,7.76308 7.69605,7.43772 7.104,4.41333 7.49587,2.13343 8.48241,1.56101 Z M 6.95092,18.0371 C 6.68923,17.9625 6.43082,17.8816 6.17568,17.7944 4.64485,17.2711 3.38027,16.5881 2.51214,15.8442 1.73495,15.1776 1.34112,14.5123 1.34112,13.9732 c 0,-1.1455 1.70485,-2.607 4.54802,-3.5981 0.3572,-0.1243 0.71745,-0.2379 1.08075,-0.3408 0.42225,1.357 0.93364,2.6846 1.53083,3.9742 -0.6043,1.3075 -1.12202,2.6533 -1.5498,4.0286 z m 7.27018,6.128 c -1.2188,1.0676 -2.4395,1.8245 -3.5157,2.2059 -0.96692,0.3422 -1.73692,0.352 -2.20206,0.0831 -0.99046,-0.5724 -1.40261,-2.783 -0.84065,-5.7478 0.06673,-0.3489 0.14305,-0.6978 0.22897,-1.0467 1.39511,0.3005 2.80904,0.5057 4.23204,0.6143 0.8247,1.1697 1.725,2.2843 2.6953,3.3364 -0.1949,0.1917 -0.3945,0.3762 -0.5979,0.5548 z m 1.5321,-1.5191 c -0.6359,-0.6876 -1.2704,-1.4484 -1.8893,-2.2662 0.6014,0.0236 1.2138,0.0354 1.837,0.0354 0.6398,0 1.2731,-0.0138 1.8972,-0.0419 -0.576,0.7884 -1.1917,1.547 -1.8449,2.2727 z m 8.1462,1.8704 c -0.1871,1.0101 -0.5633,1.6839 -1.0284,1.9534 -0.9898,0.5744 -3.1062,-0.172 -5.3881,-2.1405 -0.2616,-0.2251 -0.5233,-0.4665 -0.7896,-0.7197 0.9514,-1.0562 1.8307,-2.1752 2.6319,-3.3495 1.4308,-0.1212 2.8516,-0.3409 4.2523,-0.6575 0.0641,0.2591 0.1208,0.5129 0.1701,0.7615 0.3147,1.5897 0.3598,3.0277 0.1518,4.1523 z m 1.1383,-6.7148 c -0.1714,0.0569 -0.348,0.1119 -0.5273,0.1655 -0.4392,-1.3634 -0.9705,-2.6953 -1.5904,-3.9867 0.5966,-1.2741 1.1072,-2.5868 1.5282,-3.9291 0.3213,0.0935 0.6333,0.1916 0.9336,0.2957 2.906,1.0022 4.6789,2.4859 4.6789,3.6262 0,1.2168 -1.9149,2.7961 -5.023,3.8284 z"
       fill="#9995A6"
       id="path1"
       style="fill:#00ffff;fill-opacity:1" />
    <path
       d="m 15.7009,16.7837 c 0.5568,0.0018 1.1015,-0.1617 1.5653,-0.4697 0.4639,-0.308 0.8258,-0.7467 1.0402,-1.2605 0.2143,-0.5139 0.2713,-1.0798 0.1638,-1.6261 -0.1075,-0.5463 -0.3747,-1.0484 -0.7678,-1.4427 -0.393,-0.3943 -0.8942,-0.6632 -1.4402,-0.7724 -0.5459,-0.1093 -1.112,-0.0542 -1.6265,0.1585 -0.5146,0.2126 -0.9545,0.5732 -1.264,1.036 -0.3095,0.4628 -0.4747,1.007 -0.4747,1.5638 -8e-4,0.3689 0.0711,0.7343 0.2117,1.0753 0.1405,0.3411 0.3468,0.6511 0.6072,0.9123 0.2604,0.2613 0.5698,0.4686 0.9104,0.6103 0.3406,0.1416 0.7057,0.2147 1.0746,0.2152 z"
       fill="#9995A6"
       id="path2"
       style="fill:#00ffff;fill-opacity:1" />
  </g>
</svg>
