<?xml version="1.0" encoding="UTF-8" standalone="no"?>
<svg
   width="16.678492"
   height="11.676653"
   viewBox="0 0 16.678492 11.676653"
   fill="none"
   version="1.1"
   id="svg1"
   sodipodi:docname="icon-youtube.svg"
   inkscape:export-filename="icon-youtube.svg"
   inkscape:export-xdpi="96"
   inkscape:export-ydpi="96"
   xmlns:inkscape="http://www.inkscape.org/namespaces/inkscape"
   xmlns:sodipodi="http://sodipodi.sourceforge.net/DTD/sodipodi-0.dtd"
   xmlns="http://www.w3.org/2000/svg"
   xmlns:svg="http://www.w3.org/2000/svg">
  <defs
     id="defs1" />
  <sodipodi:namedview
     id="namedview1"
     pagecolor="#ffffff"
     bordercolor="#111111"
     borderopacity="1"
     inkscape:showpageshadow="0"
     inkscape:pageopacity="0"
     inkscape:pagecheckerboard="1"
     inkscape:deskcolor="#d1d1d1"
     showgrid="false" />
  <path
     d="m 16.339171,1.8358464 c -0.0949,-0.35217 -0.2804,-0.67333 -0.538,-0.93153003 -0.2576,-0.2582 -0.5784,-0.44442 -0.9303,-0.54014 C 13.565871,0.00584637 8.3449712,6.3668823e-6 8.3449712,6.3668823e-6 c 0,0 -5.21997,-0.00582999688 -6.5258,0.3366700031177 -0.35173,0.10012 -0.67182,0.28898 -0.92953002,0.54844 -0.25771,0.25947003 -0.4444,0.58083003 -0.54214,0.93323003 -0.34417,1.305 -0.3475000000378,4.01166 -0.3475000000378,4.01166 0,0 -0.00332999996,2.72004 0.3383300000378,4.01164 0.19167,0.7141996 0.75417002,1.2783996 1.46917002,1.4708996 1.31833,0.3583 6.525,0.3641 6.525,0.3641 0,0 5.2208698,0.0059 6.5258698,-0.3358 0.352,-0.0956 0.6731,-0.2814 0.9313,-0.539 0.2583,-0.2577 0.4448,-0.5783 0.5412,-0.9301996 0.345,-1.3041 0.3475,-4.01 0.3475,-4.01 0,0 0.0166,-2.7208 -0.3392,-4.0258 z m -9.6641698,6.5017 0.00417,-5.00004 4.3391998,2.50414 z"
     fill="#5B1FA6"
     id="path1"
     style="fill:#1de2e2;fill-opacity:1" />
</svg>
