<?xml version="1.0" encoding="UTF-8" standalone="no"?>
<svg
   width="14.75561"
   height="14.75561"
   viewBox="0 0 14.75561 14.75561"
   fill="none"
   version="1.1"
   id="svg3"
   sodipodi:docname="icon-user.svg"
   xmlns:inkscape="http://www.inkscape.org/namespaces/inkscape"
   xmlns:sodipodi="http://sodipodi.sourceforge.net/DTD/sodipodi-0.dtd"
   xmlns="http://www.w3.org/2000/svg"
   xmlns:svg="http://www.w3.org/2000/svg">
  <defs
     id="defs3" />
  <sodipodi:namedview
     id="namedview3"
     pagecolor="#ffffff"
     bordercolor="#111111"
     borderopacity="1"
     inkscape:showpageshadow="0"
     inkscape:pageopacity="0"
     inkscape:pagecheckerboard="1"
     inkscape:deskcolor="#d1d1d1"
     showgrid="false" />
  <path
     opacity="0.5"
     fill-rule="evenodd"
     clip-rule="evenodd"
     d="m 7.37781,14.13061 c 3.7295,0 6.7528,-3.0233 6.7528,-6.75279 0,-3.72948 -3.0233,-6.75282 -6.7528,-6.75282 -3.72947,0 -6.75281,3.02334 -6.75281,6.75282 0,3.72949 3.02334,6.75279 6.75281,6.75279 z"
     stroke="#5B1FA6"
     stroke-width="1.25"
     id="path1"
     style="fill:none;stroke:#00f0ff;stroke-opacity:1" />
  <path
     opacity="0.5"
     d="m 10.37921,10.37911 c -0.0872,-0.2196 -0.2226,-0.4167 -0.3962,-0.577 v 0 c -0.2924,-0.2718 -0.6767,-0.423 -1.0759,-0.4232 H 5.84957 c -0.39941,3e-4 -0.78399,0.1514 -1.07669,0.4232 v 0 c -0.17314,0.1606 -0.30846,0.3577 -0.39617,0.577"
     stroke="#5B1FA6"
     stroke-width="1.25"
     id="path2"
     style="fill:none;stroke:#00f0ff;stroke-opacity:1" />
  <path
     opacity="0.5"
     fill-rule="evenodd"
     clip-rule="evenodd"
     d="m 7.3779,7.75299 c 0.93237,0 1.68821,-0.75583 1.68821,-1.6882 0,-0.93237 -0.75584,-1.6882 -1.68821,-1.6882 -0.93237,0 -1.6882,0.75583 -1.6882,1.6882 0,0.93237 0.75583,1.6882 1.6882,1.6882 z"
     stroke="#5B1FA6"
     stroke-width="1.25"
     id="path3"
     style="stroke:#00f0ff;stroke-opacity:1" />
</svg>
