<?xml version="1.0" encoding="UTF-8" standalone="no"?>
<svg
   width="16.376671"
   height="13.301651"
   viewBox="0 0 16.376671 13.301651"
   fill="none"
   version="1.1"
   id="svg1"
   sodipodi:docname="icon-twitter.svg"
   xmlns:inkscape="http://www.inkscape.org/namespaces/inkscape"
   xmlns:sodipodi="http://sodipodi.sourceforge.net/DTD/sodipodi-0.dtd"
   xmlns="http://www.w3.org/2000/svg"
   xmlns:svg="http://www.w3.org/2000/svg">
  <defs
     id="defs1" />
  <sodipodi:namedview
     id="namedview1"
     pagecolor="#ffffff"
     bordercolor="#111111"
     borderopacity="1"
     inkscape:showpageshadow="0"
     inkscape:pageopacity="0"
     inkscape:pagecheckerboard="1"
     inkscape:deskcolor="#d1d1d1"
     showgrid="false" />
  <path
     d="m 14.69417,3.3150005 c 0.0108,0.14584 0.0108,0.29084 0.0108,0.43584 0,4.43751 -3.3775,9.5508105 -9.54997,9.5508105 -1.90167,0 -3.66834,-0.5508 -5.155000029678345,-1.5075 C 0.26999997,11.825051 0.52999997,11.835851 0.81082997,11.835851 2.32166,11.839451 3.7897,11.334251 4.97833,10.401651 c -0.70048,-0.0127 -1.37952,-0.2438 -1.9423,-0.6610005 -0.56278,-0.4173 -0.98121,-0.9999 -1.19687,-1.6665 0.2075,0.0309 0.41584,0.0517 0.63417,0.0517 0.30083,0 0.60333,-0.0417 0.88417,-0.1142 -0.7602,-0.1535 -1.44378,-0.5655 -1.93449,-1.1661 -0.49071003,-0.60053 -0.75827003,-1.35251 -0.75718003,-2.12805 v -0.04166 C 1.11333,4.9250005 1.6325,5.0808405 2.1825,5.1016705 c -0.46076,-0.30618 -0.83857,-0.72165 -1.09972,-1.20934 -0.26115003,-0.4877 -0.39752003,-1.03245 -0.39695003,-1.58566 0,-0.62333 0.16583,-1.195 0.45667003,-1.69332997 0.84344,1.03750997 1.89542,1.88629997 3.08778,2.49137997 1.19236,0.60508 2.49852,0.95296 3.83388,1.02112 -0.05166,-0.25 -0.08333,-0.50917 -0.08333,-0.76917 -2.2e-4,-0.44087 0.08645,-0.87745 0.25506,-1.2848 0.16858,-0.40735 0.41588,-0.77747 0.72758,-1.08920997 0.3118,-0.31174 0.6819,-0.55898 1.0892,-0.72759 0.4074,-0.16861 0.844,-0.25528999556 1.2848,-0.25506999556091 0.9667,0 1.8392,0.40499999556091 2.4525,1.05999996556091 0.7515,-0.14531997 1.4721,-0.41964997 2.13,-0.81082997 -0.2505,0.77567997 -0.7752,1.43341997 -1.4758,1.84999997 0.6665,-0.07602 1.3179,-0.25129 1.9325,-0.52 -0.4591,0.66925 -1.0279,1.25612 -1.6825,1.73583 z"
     fill="#5B1FA6"
     id="path1"
     style="fill:#00f0ff;fill-opacity:1" />
</svg>
