<?xml version="1.0" encoding="UTF-8" standalone="no"?>
<!-- Uploaded to: SVG Repo, www.svgrepo.com, Generator: SVG Repo Mixer Tools -->

<svg
   height="625.07098"
   width="690.42609"
   version="1.1"
   id="_x32_"
   viewBox="0 0 441.8727 400.04543"
   xml:space="preserve"
   sodipodi:docname="money-dollar-svgrepo-com.svg"
   inkscape:version="1.3 (0e150ed6c4, 2023-07-21)"
   inkscape:export-filename="../edit/money.svg"
   inkscape:export-xdpi="6.8750515"
   inkscape:export-ydpi="6.8750515"
   xmlns:inkscape="http://www.inkscape.org/namespaces/inkscape"
   xmlns:sodipodi="http://sodipodi.sourceforge.net/DTD/sodipodi-0.dtd"
   xmlns="http://www.w3.org/2000/svg"
   xmlns:svg="http://www.w3.org/2000/svg"><defs
   id="defs11" /><sodipodi:namedview
   id="namedview11"
   pagecolor="#ffffff"
   bordercolor="#111111"
   borderopacity="1"
   inkscape:showpageshadow="0"
   inkscape:pageopacity="0"
   inkscape:pagecheckerboard="1"
   inkscape:deskcolor="#d1d1d1"
   inkscape:zoom="0.345"
   inkscape:cx="457.97101"
   inkscape:cy="379.71014"
   inkscape:window-width="1300"
   inkscape:window-height="578"
   inkscape:window-x="30"
   inkscape:window-y="138"
   inkscape:window-maximized="1"
   inkscape:current-layer="_x32_"
   showguides="true"><sodipodi:guide
     position="-5.018486,446.98245"
     orientation="1,0"
     id="guide12"
     inkscape:locked="false" /><sodipodi:guide
     position="443.90905,411.73607"
     orientation="1,0"
     id="guide13"
     inkscape:locked="false" /></sodipodi:namedview>&#10;<style
   type="text/css"
   id="style1">&#10;	.st0{fill:#000000;}&#10;</style>&#10;<g
   id="g11"
   style="fill:#00ffff"
   transform="translate(-36.554718,-111.21433)">&#10;	<path
   class="st0"
   d="m 370.93262,464.14291 38.03799,8.65645 c 0.98763,0.17316 1.79781,0.86843 2.02667,1.72374 l 10.02687,32.61609 c 0.26986,0.95815 1.24648,1.63033 2.38954,1.63033 1.15346,0 2.13008,-0.6727 2.39015,-1.63033 l 10.03727,-32.61609 c 0.21785,-0.85531 1.02864,-1.55058 2.01566,-1.72374 l 38.04044,-8.65645 c 1.11185,-0.1784 1.90184,-1.02899 1.90184,-2.00918 0,-0.98912 -0.78937,-1.82186 -1.90184,-2.01391 l -38.04044,-8.65121 c -0.98702,-0.1826 -1.79781,-0.86842 -2.01566,-1.72373 l -10.03788,-32.61662 c -0.25946,-0.9487 -1.23608,-1.63505 -2.38954,-1.63505 -1.14306,0 -2.11968,0.68635 -2.38954,1.63505 l -10.02687,32.6161 c -0.22886,0.8553 -1.03904,1.54112 -2.02667,1.72373 l -38.03799,8.65173 c -1.12226,0.19152 -1.90123,1.02479 -1.90123,2.01391 -6.1e-4,0.98019 0.77897,1.83078 1.90123,2.00918 z"
   id="path1"
   style="fill:#ffffff;stroke-width:0.566648" /><path
   class="st0"
   d="m 38.455947,466.63317 38.03799,8.65645 c 0.98763,0.17316 1.79781,0.86843 2.02667,1.72374 l 10.02687,32.61609 c 0.26986,0.95815 1.24648,1.63033 2.38954,1.63033 1.15346,0 2.13008,-0.6727 2.39015,-1.63033 l 10.037273,-32.61609 c 0.21785,-0.85531 1.02864,-1.55058 2.01566,-1.72374 l 38.04044,-8.65645 c 1.11185,-0.1784 1.90184,-1.02899 1.90184,-2.00918 0,-0.98912 -0.78937,-1.82186 -1.90184,-2.01391 l -38.04044,-8.65121 c -0.98702,-0.1826 -1.79781,-0.86842 -2.01566,-1.72373 L 93.326557,419.61852 c -0.25946,-0.9487 -1.23608,-1.63505 -2.38954,-1.63505 -1.14306,0 -2.11968,0.68635 -2.38954,1.63505 l -10.02687,32.6161 c -0.22886,0.8553 -1.03904,1.54112 -2.02667,1.72373 l -38.03799,8.65173 c -1.12226,0.19152 -1.90123,1.02479 -1.90123,2.01391 -6.1e-4,0.98019 0.77897,1.83078 1.90123,2.00918 z"
   id="path1-5"
   style="fill:#ffffff;stroke-width:0.566648" />&#10;	&#10;	<path
   class="st0"
   d="m 36.693849,273.01634 v 40.006 c 0,6.597 1.325,13.025 3.966,19.41 2.64,6.368 6.597,12.692 11.869,18.874 2.225,2.589 4.721,5.153 7.395,7.675 v -64.026 c -1.749,-1.307 -3.447,-2.623 -5.102,-3.956 -6.887,-5.621 -12.974,-11.624 -18.128,-17.983 z"
   id="path3"
   style="fill:#00ffff" />&#10;	<path
   class="st0"
   d="m 78.499849,373.57534 c 6.198,4.067 12.991,7.964 20.367997,11.614 3.167004,1.58 6.469004,3.073 9.824004,4.534 v -68.076 c -10.842001,-4.381 -20.946001,-9.245 -30.192001,-14.552 z"
   id="path4"
   style="fill:#00ffff" />&#10;	<path
   class="st0"
   d="m 127.28485,328.43234 v 68.22 h -1.095 c 13.236,4.729 27.593,8.78 42.893,12.014 v -69.314 c -9.918,-1.995 -19.528,-4.288 -28.731,-6.903 -4.448,-1.275 -8.813,-2.608 -13.067,-4.017 z"
   id="path5"
   style="fill:#00ffff" />&#10;	<path
   class="st0"
   d="m 187.66885,412.01934 c 19.12,3.09 39.344,5.008 60.383,5.434 v -69.731 c -20.929,-0.408 -41.152,-2.148 -60.383,-5.12 z"
   id="path6"
   style="fill:#00ffff" />&#10;	<path
   class="st0"
   d="m 266.64485,417.40234 c 21.906,-0.424 42.91,-2.496 62.705,-5.799 v -69.314 c -19.905,3.158 -40.935,5.052 -62.705,5.476 z"
   id="path7"
   style="fill:#00ffff" />&#10;	<path
   class="st0"
   d="m 347.92785,408.12234 c 7.319,-1.596 14.467,-3.337 21.327,-5.29 7.116,-2.02 13.941,-4.228 20.496,-6.605 v -68.585 c -13.109,4.424 -27.101,8.21 -41.823,11.25 z"
   id="path8"
   style="fill:#00ffff" />&#10;	<path
   class="st0"
   d="m 408.32685,320.68034 v 68.042 c 11.275,-5.095 21.396,-10.698 30.192,-16.727 v -66.257 c -4.602,2.717 -9.424,5.34 -14.45,7.844 -5.044,2.488 -10.308,4.848 -15.742,7.098 z"
   id="path9"
   style="fill:#00ffff" />&#10;	<path
   class="st0"
   d="m 455.99285,293.98734 h 1.103 v 62.778 c 7.846,-7.871 13.533,-16.081 16.93,-24.333 2.649,-6.385 3.973,-12.812 3.973,-19.41 v -39.989 c -0.56,0.696 -1.121,1.393 -1.716,2.08 -5.738,6.716 -12.582,12.99 -20.29,18.874 z"
   id="path10"
   style="fill:#00ffff" />&#10;	<path
   class="st0"
   d="m 474.45438,235.12039 c 2.649,-6.385 3.973,-12.803 3.973,-19.392 0,-6.588 -1.324,-13.007 -3.973,-19.391 -2.633,-6.376 -6.588,-12.702 -11.87,-18.874 -10.528,-12.353 -26.354,-24.019 -46.34,-33.885 -39.939,-19.799 -96.225,-32.398 -158.468,-32.364 -40.846,0 -79.13,5.382 -111.911,14.713 -32.789,9.314 -60.060001,22.636 -78.874001,37.995 -12.574,10.214 -21.302,21.267 -25.904,32.416 -2.64,6.384 -3.966,12.803 -3.966,19.391 0,6.589 1.325,13.007 3.966,19.392 2.64,6.368 6.597,12.693 11.869,18.865 10.545,12.371 26.371,24.019 46.34,33.894 39.938001,19.808 96.237001,32.399 158.480001,32.374 40.855,0 79.134,-5.391 111.906,-14.73 32.79,-9.314 60.077,-22.627 78.876,-37.978 12.566,-10.233 21.311,-21.286 25.896,-32.426 z m -142.145,3.422 c -2.895,5.229 -7.506,9.687 -13.78,13.38 -6.41,3.77 -14.434,6.606 -24.062,8.491 -4.241,0.832 -8.715,1.392 -13.262,1.851 l 1.851,22.525 h -35.981 l -0.247,-22.083 c -9.776,-0.603 -19.086,-1.749 -27.78,-3.532 -13.147,-2.7 -29.329,-13.262 -29.329,-13.262 -1.388,-0.62 -2.229,-1.698 -2.284,-2.886 -0.059,-1.188 0.628,-2.377 1.919,-3.21 l 17.265,-11.394 c 1.805,-1.188 4.475,-1.401 6.478,-0.535 0,0 11.704,7.31 20.887,9.093 9.254,1.766 18.504,2.666 27.695,2.666 11.616,-0.016 21.112,-1.477 28.392,-4.364 7.216,-2.887 10.37,-7.251 9.598,-13.092 -0.539,-4.101 -2.717,-7.267 -6.559,-9.569 -3.774,-2.284 -9.87,-3.684 -18.263,-4.296 l -27.411,-1.511 c -16.132,-1.036 -28.384,-3.965 -36.687,-8.678 -8.155,-4.644 -11.661,-11.47 -10.736,-20.283 0.492,-4.721 2.458,-8.83 5.854,-12.378 3.324,-3.472 7.658,-6.368 12.96,-8.694 5.269,-2.292 11.271,-4.024 18.06,-5.162 2.801,-0.476 5.748,-0.781 8.744,-1.078 l -0.114,-10.596 25.632,-0.068 0.857,10.4 c 6.194,0.323 12.12,0.884 17.698,1.75 9.547,1.434 20.169,5.909 20.169,5.909 1.316,0.39 2.3,1.078 2.665,1.894 0.365,0.84 0.068,1.655 -0.819,2.249 l -11.636,7.879 c -1.265,0.849 -3.387,1.087 -5.238,0.535 0,0 -8.138,-3.303 -14.888,-4.322 -6.703,-1.018 -13.666,-1.511 -20.954,-1.494 -9.497,0.017 -16.539,1.112 -21.111,3.311 -4.644,2.241 -7.03,5.162 -7.127,8.838 -0.098,3.371 1.502,5.986 4.89,7.837 3.396,1.868 9.156,3.091 17.346,3.583 l 22.979,1.222 c 17.129,0.935 30.505,3.821 40.214,8.746 9.968,5.035 16.064,12.608 18.255,22.991 1.375,6.469 0.661,12.259 -2.14,17.337 z m 65.42044,5.80728 19.38056,-13.71128 c -0.714,0.136 -1.291,0.722 -1.443,1.443 l -4.80457,-5.81948 c -0.186,0.789 -5.06194,-1.30674 -5.87594,-1.30674 -0.816,0 -7.13604,-3.53349 -8.03427,6.50194 l 2.49108,7.84524 c -0.17,-0.722 6.3797,-14.54904 5.6667,-14.68404 l -7.40134,-2.89013 c -0.798,-0.162 -50.59429,-2.07568 -29.31566,0.11421 12.86132,1.32362 35.58386,2.8451 36.38186,2.6841 l -8.12586,-11.4811 c 0.713,-0.178 1.273,-0.713 1.443,-1.426 l 7.098,-26.914 c 0.187,-0.798 -12.2713,21.11717 -11.4553,21.11717 0.814,0 3.21429,21.87748 3.40029,22.67548 l 12.96234,-15.7829 c 0.152,0.713 -2.43704,1.24485 -1.72404,1.42285 l -10.23886,9.11613 c 0.782,0.161 6.3758,0.81113 6.3758,1.62713 0,0.798 -5.99879,19.30642 -6.78079,19.46842 z"
   id="path11"
   style="fill:#00ffff"
   sodipodi:nodetypes="cscccccccsccccccccccccccccccccccccccccccccccccccccccccccccccccccccsccccsccccsccccsc" />&#10;</g>&#10;</svg>
